<svg xmlns="http://www.w3.org/2000/svg" style="display: none;">
  <symbol id="search" viewBox="0 0 24 24">
    <path d="M23.707,22.293l-5.969-5.969a10.016,10.016,0,1,0-1.414,1.414l5.969,5.969a1,1,0,0,0,1.414-1.414ZM10,18a8,8,0,1,1,8-8A8.009,8.009,0,0,1,10,18Z"/>
  </symbol>
  <symbol id="filter" viewBox="0 0 24 24">
    <path d="M24,3c0,.55-.45,1-1,1H1c-.55,0-1-.45-1-1s.45-1,1-1H23c.55,0,1,.45,1,1ZM15,20h-6c-.55,0-1,.45-1,1s.45,1,1,1h6c.55,0,1-.45,1-1s-.45-1-1-1Zm4-9H5c-.55,0-1,.45-1,1s.45,1,1,1h14c.55,0,1-.45,1-1s-.45-1-1-1Z"/>
  </symbol>
  <symbol id="clear" viewBox="0 0 24 24">
    <path d="m15.707,9.707l-2.293,2.293,2.293,2.293c.391.391.391,1.023,0,1.414-.195.195-.451.293-.707.293s-.512-.098-.707-.293l-2.293-2.293-2.293,2.293c-.195.195-.451.293-.707.293s-.512-.098-.707-.293c-.391-.391-.391-1.023,0-1.414l2.293-2.293-2.293-2.293c-.391-.391-.391-1.023,0-1.414s1.023-.391,1.414,0l2.293,2.293,2.293-2.293c.391-.391,1.023-.391,1.414,0s.391,1.023,0,1.414Zm8.293,2.293c0,6.617-5.383,12-12,12S0,18.617,0,12,5.383,0,12,0s12,5.383,12,12Zm-2,0c0-5.514-4.486-10-10-10S2,6.486,2,12s4.486,10,10,10,10-4.486,10-10Z"/>
  </symbol>
  <symbol id="fetch" viewBox="0 0 24 24">
    <path d="m19.949,5.536l-3.484-3.486c-1.323-1.322-3.081-2.05-4.95-2.05h-4.515C4.243,0,2,2.243,2,5v6c0,.552.447,1,1,1s1-.448,1-1v-6c0-1.654,1.346-3,3-3h4.515c.163,0,.325.008.485.023v4.977c0,1.654,1.346,3,3,3h4.977c.015.16.023.322.023.485v8.515c0,1.654-1.346,3-3,3H7c-1.654,0-3-1.346-3-3,0-.552-.447-1-1-1s-1,.448-1,1c0,2.757,2.243,5,5,5h10c2.757,0,5-2.243,5-5v-8.515c0-1.871-.729-3.628-2.051-4.95Zm-4.949,2.464c-.552,0-1-.449-1-1V2.659c.38.218.733.487,1.051.805l3.484,3.486c.318.317.587.67.805,1.05h-4.341Zm-4.602,8H1c-.553,0-1-.448-1-1s.447-1,1-1h9.398l-1.293-1.293c-.391-.391-.391-1.024,0-1.414.391-.391,1.023-.391,1.414,0l1.613,1.614c1.154,1.154,1.154,3.032,0,4.187l-1.613,1.614c-.195.195-.451.293-.707.293s-.512-.098-.707-.293c-.391-.39-.391-1.023,0-1.414l1.293-1.293Z"/>
  </symbol>
  <symbol id="save" viewBox="0 0 24 24">
    <path d="M12,10a4,4,0,1,0,4,4A4,4,0,0,0,12,10Zm0,6a2,2,0,1,1,2-2A2,2,0,0,1,12,16Z"/><path d="M22.536,4.122,19.878,1.464A4.966,4.966,0,0,0,16.343,0H5A5.006,5.006,0,0,0,0,5V19a5.006,5.006,0,0,0,5,5H19a5.006,5.006,0,0,0,5-5V7.657A4.966,4.966,0,0,0,22.536,4.122ZM17,2.08V3a3,3,0,0,1-3,3H10A3,3,0,0,1,7,3V2h9.343A2.953,2.953,0,0,1,17,2.08ZM22,19a3,3,0,0,1-3,3H5a3,3,0,0,1-3-3V5A3,3,0,0,1,5,2V3a5.006,5.006,0,0,0,5,5h4a4.991,4.991,0,0,0,4.962-4.624l2.16,2.16A3.02,3.02,0,0,1,22,7.657Z"/>
  </symbol>
  <symbol id="saveAs" viewBox="0 0 24 24">
    <path d="m16 16a1 1 0 0 1 -1 1h-2v2a1 1 0 0 1 -2 0v-2h-2a1 1 0 0 1 0-2h2v-2a1 1 0 0 1 2 0v2h2a1 1 0 0 1 1 1zm6-5.515v8.515a5.006 5.006 0 0 1 -5 5h-10a5.006 5.006 0 0 1 -5-5v-14a5.006 5.006 0 0 1 5-5h4.515a6.958 6.958 0 0 1 4.95 2.05l3.484 3.486a6.951 6.951 0 0 1 2.051 4.949zm-6.949-7.021a5.01 5.01 0 0 0 -1.051-.78v4.316a1 1 0 0 0 1 1h4.316a4.983 4.983 0 0 0 -.781-1.05zm4.949 7.021c0-.165-.032-.323-.047-.485h-4.953a3 3 0 0 1 -3-3v-4.953c-.162-.015-.321-.047-.485-.047h-4.515a3 3 0 0 0 -3 3v14a3 3 0 0 0 3 3h10a3 3 0 0 0 3-3z"/>
  </symbol>
  <symbol id="delete" viewBox="0 0 24 24">
    <path d="M21,4H17.9A5.009,5.009,0,0,0,13,0H11A5.009,5.009,0,0,0,6.1,4H3A1,1,0,0,0,3,6H4V19a5.006,5.006,0,0,0,5,5h6a5.006,5.006,0,0,0,5-5V6h1a1,1,0,0,0,0-2ZM11,2h2a3.006,3.006,0,0,1,2.829,2H8.171A3.006,3.006,0,0,1,11,2Zm7,17a3,3,0,0,1-3,3H9a3,3,0,0,1-3-3V6H18Z"/><path d="M10,18a1,1,0,0,0,1-1V11a1,1,0,0,0-2,0v6A1,1,0,0,0,10,18Z"/><path d="M14,18a1,1,0,0,0,1-1V11a1,1,0,0,0-2,0v6A1,1,0,0,0,14,18Z"/>
  </symbol>
  <symbol id="send" viewBox="0 0 24 24">
    <path d="m21.916,8.727L3.965.282C2.951-.211,1.756-.041.917.713.076,1.47-.216,2.646.172,3.708c.017.043,4.411,8.296,4.411,8.296,0,0-4.313,8.251-4.328,8.293-.387,1.063-.092,2.237.749,2.993.521.467,1.179.708,1.841.708.409,0,.819-.092,1.201-.279l17.872-8.438c1.285-.603,2.083-1.859,2.082-3.278,0-1.42-.801-2.675-2.084-3.275ZM2.032,2.967c-.122-.415.138-.69.223-.768.089-.079.414-.324.838-.116.005.002,17.974,8.455,17.974,8.455.239.112.438.27.591.462H6.315L2.032,2.967Zm19.034,10.504L3.178,21.917c-.425.209-.749-.035-.838-.116-.086-.076-.346-.353-.223-.769l4.202-8.032h15.345c-.153.195-.355.357-.597.471Z"/>
  </symbol>
</svg>
