<svg xmlns="http://www.w3.org/2000/svg" style="display: none;">
  <symbol id="search" viewBox="0 0 24 24">
    <path d="M23.707,22.293l-5.969-5.969a10.016,10.016,0,1,0-1.414,1.414l5.969,5.969a1,1,0,0,0,1.414-1.414ZM10,18a8,8,0,1,1,8-8A8.009,8.009,0,0,1,10,18Z"/>
  </symbol>
  <symbol id="filter" viewBox="0 0 24 24">
    <path d="M24,3c0,.55-.45,1-1,1H1c-.55,0-1-.45-1-1s.45-1,1-1H23c.55,0,1,.45,1,1ZM15,20h-6c-.55,0-1,.45-1,1s.45,1,1,1h6c.55,0,1-.45,1-1s-.45-1-1-1Zm4-9H5c-.55,0-1,.45-1,1s.45,1,1,1h14c.55,0,1-.45,1-1s-.45-1-1-1Z"/>
  </symbol>
  <symbol id="clear" viewBox="0 0 24 24">
    <path d="m19 2h-9.044a4.966 4.966 0 0 0 -3.946 1.931l-5.8 7.455a1 1 0 0 0 0 1.228l5.8 7.455a4.966 4.966 0 0 0 3.946 1.931h9.044a5.006 5.006 0 0 0 5-5v-10a5.006 5.006 0 0 0 -5-5zm3 15a3 3 0 0 1 -3 3h-9.044a2.979 2.979 0 0 1 -2.368-1.158l-5.321-6.842 5.321-6.842a2.979 2.979 0 0 1 2.368-1.158h9.044a3 3 0 0 1 3 3zm-4.793-6.793-1.793 1.793 1.793 1.793a1 1 0 1 1 -1.414 1.414l-1.793-1.793-1.793 1.793a1 1 0 0 1 -1.414-1.414l1.793-1.793-1.793-1.793a1 1 0 0 1 1.414-1.414l1.793 1.793 1.793-1.793a1 1 0 0 1 1.414 1.414z"/>
  </symbol>
  <symbol id="fetch" viewBox="0 0 24 24">
    <path d="m19.949,5.536l-3.484-3.486c-1.323-1.322-3.081-2.05-4.95-2.05h-4.515C4.243,0,2,2.243,2,5v6c0,.552.447,1,1,1s1-.448,1-1v-6c0-1.654,1.346-3,3-3h4.515c.163,0,.325.008.485.023v4.977c0,1.654,1.346,3,3,3h4.977c.015.16.023.322.023.485v8.515c0,1.654-1.346,3-3,3H7c-1.654,0-3-1.346-3-3,0-.552-.447-1-1-1s-1,.448-1,1c0,2.757,2.243,5,5,5h10c2.757,0,5-2.243,5-5v-8.515c0-1.871-.729-3.628-2.051-4.95Zm-4.949,2.464c-.552,0-1-.449-1-1V2.659c.38.218.733.487,1.051.805l3.484,3.486c.318.317.587.67.805,1.05h-4.341Zm-4.602,8H1c-.553,0-1-.448-1-1s.447-1,1-1h9.398l-1.293-1.293c-.391-.391-.391-1.024,0-1.414.391-.391,1.023-.391,1.414,0l1.613,1.614c1.154,1.154,1.154,3.032,0,4.187l-1.613,1.614c-.195.195-.451.293-.707.293s-.512-.098-.707-.293c-.391-.39-.391-1.023,0-1.414l1.293-1.293Z"/>
  </symbol>
  <symbol id="save" viewBox="0 0 24 24">
    <path d="M12,10a4,4,0,1,0,4,4A4,4,0,0,0,12,10Zm0,6a2,2,0,1,1,2-2A2,2,0,0,1,12,16Z"/>
    <path d="M22.536,4.122,19.878,1.464A4.966,4.966,0,0,0,16.343,0H5A5.006,5.006,0,0,0,0,5V19a5.006,5.006,0,0,0,5,5H19a5.006,5.006,0,0,0,5-5V7.657A4.966,4.966,0,0,0,22.536,4.122ZM17,2.08V3a3,3,0,0,1-3,3H10A3,3,0,0,1,7,3V2h9.343A2.953,2.953,0,0,1,17,2.08ZM22,19a3,3,0,0,1-3,3H5a3,3,0,0,1-3-3V5A3,3,0,0,1,5,2V3a5.006,5.006,0,0,0,5,5h4a4.991,4.991,0,0,0,4.962-4.624l2.16,2.16A3.02,3.02,0,0,1,22,7.657Z"/>
  </symbol>
  <symbol id="saveAs" viewBox="0 0 24 24">
    <path d="M16,16a1,1,0,0,1-1,1H13v2a1,1,0,0,1-2,0V17H9a1,1,0,0,1,0-2h2V13a1,1,0,0,1,2,0v2h2A1,1,0,0,1,16,16Zm6-5.515V19a5.006,5.006,0,0,1-5,5H7A5.006,5.006,0,0,1,2,19V5A5.006,5.006,0,0,1,7,0h4.515a6.958,6.958,0,0,1,4.95,2.05l3.484,3.486A6.951,6.951,0,0,1,22,10.485Zm-6.949-7.021a5.01,5.01,0,0,0-1.051-.78V7a1,1,0,0,0,1,1h4.316a4.983,4.983,0,0,0-.781-1.05ZM20,10.485c0-.165-.032-.323-.047-.485H15A3,3,0,0,1,12,7V2.047C11.679,2.032,11.521,2,11.515,2H7A3,3,0,0,0,4,5V19a3,3,0,0,0,3,3H17a3,3,0,0,0,3-3Z"/>
  </symbol>
  <symbol id="delete" viewBox="0 0 24 24">
    <path d="M21,4H17.9A5.009,5.009,0,0,0,13,0H11A5.009,5.009,0,0,0,6.1,4H3A1,1,0,0,0,3,6H4V19a5.006,5.006,0,0,0,5,5h6a5.006,5.006,0,0,0,5-5V6h1a1,1,0,0,0,0-2ZM11,2h2a3.006,3.006,0,0,1,2.829,2H8.171A3.006,3.006,0,0,1,11,2Zm7,17a3,3,0,0,1-3,3H9a3,3,0,0,1-3-3V6H18Z"/>
    <path d="M10,18a1,1,0,0,0,1-1V11a1,1,0,0,0-2,0v6A1,1,0,0,0,10,18Z"/>
    <path d="M14,18a1,1,0,0,0,1-1V11a1,1,0,0,0-2,0v6A1,1,0,0,0,14,18Z"/>
  </symbol>
  <symbol id="send" viewBox="0 0 24 24">
    <path d="m21.916,8.727L3.965.282C2.951-.211,1.756-.041.917.713.076,1.47-.216,2.646.172,3.708c.017.043,4.411,8.296,4.411,8.296,0,0-4.313,8.251-4.328,8.293-.387,1.063-.092,2.237.749,2.993.521.467,1.179.708,1.841.708.409,0,.819-.092,1.201-.279l17.872-8.438c1.285-.603,2.083-1.859,2.082-3.278,0-1.42-.801-2.675-2.084-3.275ZM2.032,2.967c-.122-.415.138-.69.223-.768.089-.079.414-.324.838-.116.005.002,17.974,8.455,17.974,8.455.239.112.438.27.591.462H6.315L2.032,2.967Zm19.034,10.504L3.178,21.917c-.425.209-.749-.035-.838-.116-.086-.076-.346-.353-.223-.769l4.202-8.032h15.345c-.153.195-.355.357-.597.471Z"/>
  </symbol>
  <symbol id="theme" viewBox="0 0 24 24">
    <path d="M12,22C6.49,22,2,17.51,2,12S6.49,2,12,2s10,4.49,10,10-4.49,10-10,10Zm0-18a8,8,0,1,0,8,8,8,8,0,0,0-8-8Zm0,14a6,6,0,0,1-6-6,6,6,0,0,1,6-6Z"/>
  </symbol>
  <symbol id="close" viewBox="0 0 24 24">
    <path d="M23.707.293h0a1,1,0,0,0-1.414,0L12,10.586,1.707.293a1,1,0,0,0-1.414,0h0a1,1,0,0,0,0,1.414L10.586,12,.293,22.293a1,1,0,0,0,0,1.414h0a1,1,0,0,0,1.414,0L12,13.414,22.293,23.707a1,1,0,0,0,1.414,0h0a1,1,0,0,0,0-1.414L13.414,12,23.707,1.707A1,1,0,0,0,23.707.293Z"/>
  </symbol>
  <symbol id="fullscreen" viewBox="0 0 24 24">
    <path d="M19,24H17a1,1,0,0,1,0-2h2a3,3,0,0,0,3-3V17a1,1,0,0,1,2,0v2A5.006,5.006,0,0,1,19,24Z"/>
    <path d="M1,8A1,1,0,0,1,0,7V5A5.006,5.006,0,0,1,5,0H7A1,1,0,0,1,7,2H5A3,3,0,0,0,2,5V7A1,1,0,0,1,1,8Z"/>
    <path d="M7,24H5a5.006,5.006,0,0,1-5-5V17a1,1,0,0,1,2,0v2a3,3,0,0,0,3,3H7a1,1,0,0,1,0,2Z"/>
    <path d="M23,8a1,1,0,0,1-1-1V5a3,3,0,0,0-3-3H17a1,1,0,0,1,0-2h2a5.006,5.006,0,0,1,5,5V7A1,1,0,0,1,23,8Z"/>
  </symbol>
  <symbol id="compress" viewBox="0 0 24 24">
    <path d="M7,0A1,1,0,0,0,6,1V3A3,3,0,0,1,3,6H1A1,1,0,0,0,1,8H3A5.006,5.006,0,0,0,8,3V1A1,1,0,0,0,7,0Z"/>
    <path d="M23,16H21a5.006,5.006,0,0,0-5,5v2a1,1,0,0,0,2,0V21a3,3,0,0,1,3-3h2a1,1,0,0,0,0-2Z"/>
    <path d="M21,8h2a1,1,0,0,0,0-2H21a3,3,0,0,1-3-3V1a1,1,0,0,0-2,0V3A5.006,5.006,0,0,0,21,8Z"/>
    <path d="M3,16H1a1,1,0,0,0,0,2H3a3,3,0,0,1,3,3v2a1,1,0,0,0,2,0V21A5.006,5.006,0,0,0,3,16Z"/>
  </symbol>
  <symbol id="check" viewBox="0 0 24 24">
    <path d="M22.319,4.431,8.5,18.249a1,1,0,0,1-1.417,0L1.739,12.9a1,1,0,0,0-1.417,0h0a1,1,0,0,0,0,1.417l5.346,5.345a3.008,3.008,0,0,0,4.25,0L23.736,5.847a1,1,0,0,0,0-1.416h0A1,1,0,0,0,22.319,4.431Z"/>
  </symbol>
  <symbol id="cross" viewBox="0 0 24 24">
    <path d="M18,6h0a1,1,0,0,0-1.414,0L12,10.586,7.414,6A1,1,0,0,0,6,6H6A1,1,0,0,0,6,7.414L10.586,12,6,16.586A1,1,0,0,0,6,18H6a1,1,0,0,0,1.414,0L12,13.414,16.586,18A1,1,0,0,0,18,18h0a1,1,0,0,0,0-1.414L13.414,12,18,7.414A1,1,0,0,0,18,6Z"/>
  </symbol>
  <symbol id="menu" viewBox="0 0 24 24">
    <rect y="11" width="24" height="2" rx="1"/><rect y="4" width="24" height="2" rx="1"/><rect y="18" width="24" height="2" rx="1"/>
  </symbol>
  <symbol id="minimize" viewBox="0 0 24 24">
    <path d="M22.5,14H1.5c-.83,0-1.5-.67-1.5-1.5s.67-1.5,1.5-1.5H22.5c.83,0,1.5,.67,1.5,1.5s-.67,1.5-1.5,1.5Z"/>
  </symbol>
  <symbol id="new" viewBox="0 0 24 24">
    <path d="m12 0a12 12 0 1 0 12 12 12.013 12.013 0 0 0 -12-12zm0 22a10 10 0 1 1 10-10 10.011 10.011 0 0 1 -10 10zm1-11h4v2h-4v4h-2v-4h-4v-2h4v-4h2z"/>
  </symbol>
  <symbol id="clearAll" viewBox="0 0 24 24">
    <path d="m19,0H5C2.243,0,0,2.243,0,5v14c0,2.757,2.243,5,5,5h14c2.757,0,5-2.243,5-5V5c0-2.757-2.243-5-5-5Zm3,19c0,1.654-1.346,3-3,3H5c-1.654,0-3-1.346-3-3V5c0-1.654,1.346-3,3-3h14c1.654,0,3,1.346,3,3v14Zm-4.231-12.359l-4.466,5.359,4.466,5.359c.354.425.296,1.056-.128,1.409-.188.155-.414.231-.64.231-.287,0-.571-.122-.77-.359l-4.231-5.078-4.231,5.078c-.198.237-.482.359-.77.359-.226,0-.452-.076-.64-.231-.424-.354-.481-.984-.128-1.409l4.466-5.359-4.466-5.359c-.354-.425-.296-1.056.128-1.409.426-.353,1.056-.296,1.409.128l4.231,5.078,4.231-5.078c.354-.424.983-.48,1.409-.128.424.354.481.984.128,1.409Z"/>
  </symbol>
   <symbol id="export" viewBox="0 0 16 16">
  <path d="M.5 9.9a.5.5 0 0 1 .5.5V13a1 1 0 0 0 1 1h12a1 1 0 0 0 1-1v-2.6a.5.5 0 0 1 1 0V13a2 2 0 0 1-2 2H2a2 2 0 0 1-2-2v-2.6a.5.5 0 0 1 .5-.5z"/>
  <path d="M7.646 1.146a.5.5 0 0 1 .708 0l3 3a.5.5 0 0 1-.708.708L8.5 2.707V10.5a.5.5 0 0 1-1 0V2.707L5.354 4.854a.5.5 0 1 1-.708-.708l3-3z"/>
  </symbol>
    <symbol id="import" viewBox="0 0 16 16">
    <path d="M.5 9.9a.5.5 0 0 1 .5.5v2.5a1 1 0 0 0 1 1h12a1 1 0 0 0 1-1v-2.5a.5.5 0 0 1 1 0v2.5a2 2 0 0 1-2 2H2a2 2 0 0 1-2-2v-2.5a.5.5 0 0 1 .5-.5z"/>
    <path d="M7.646 11.854a.5.5 0 0 0 .708 0l3-3a.5.5 0 0 0-.708-.708L8.5 10.293V1.5a.5.5 0 0 0-1 0v8.793L5.354 8.146a.5.5 0 1 0-.708.708l3 3z"/>
  </symbol>
</svg>