<svg xmlns="http://www.w3.org/2000/svg" style="display: none;">
  <symbol id="search" viewBox="0 0 24 24">
    <path d="M23.707,22.293l-5.969-5.969a10.016,10.016,0,1,0-1.414,1.414l5.969,5.969a1,1,0,0,0,1.414-1.414ZM10,18a8,8,0,1,1,8-8A8.009,8.009,0,0,1,10,18Z"/>
  </symbol>
  <symbol id="clear" viewBox="0 0 24 24">
    <path d="m15.707,9.707l-2.293,2.293,2.293,2.293c.391.391.391,1.023,0,1.414-.195.195-.451.293-.707.293s-.512-.098-.707-.293l-2.293-2.293-2.293,2.293c-.195.195-.451.293-.707.293s-.512-.098-.707-.293c-.391-.391-.391-1.023,0-1.414l2.293-2.293-2.293-2.293c-.391-.391-.391-1.023,0-1.414s1.023-.391,1.414,0l2.293,2.293,2.293-2.293c.391-.391,1.023-.391,1.414,0s.391,1.023,0,1.414Zm8.293,2.293c0,6.617-5.383,12-12,12S0,18.617,0,12,5.383,0,12,0s12,5.383,12,12Zm-2,0c0-5.514-4.486-10-10-10S2,6.486,2,12s4.486,10,10,10,10-4.486,10-10Z"/>
  </symbol>
  <symbol id="fetch" viewBox="0 0 24 24">
    <path d="m19.949,5.536l-3.484-3.486c-1.323-1.322-3.081-2.05-4.95-2.05h-4.515C4.243,0,2,2.243,2,5v6c0,.552.447,1,1,1s1-.448,1-1v-6c0-1.654,1.346-3,3-3h4.515c.163,0,.325.008.485.023v4.977c0,1.654,1.346,3,3,3h4.977c.015.16.023.322.023.485v8.515c0,1.654-1.346,3-3,3H7c-1.654,0-3-1.346-3-3,0-.552-.447-1-1-1s-1,.448-1,1c0,2.757,2.243,5,5,5h10c2.757,0,5-2.243,5-5v-8.515c0-1.871-.729-3.628-2.051-4.95Zm-4.949,2.464c-.552,0-1-.449-1-1V2.659c.38.218.733.487,1.051.805l3.484,3.486c.318.317.587.67.805,1.05h-4.341Zm-4.602,8H1c-.553,0-1-.448-1-1s.447-1,1-1h9.398l-1.293-1.293c-.391-.391-.391-1.024,0-1.414.391-.391,1.023-.391,1.414,0l1.613,1.614c1.154,1.154,1.154,3.032,0,4.187l-1.613,1.614c-.195.195-.451.293-.707.293s-.512-.098-.707-.293c-.391-.39-.391-1.023,0-1.414l1.293-1.293Z"/>
  </symbol>
  <symbol id="save" viewBox="0 0 24 24">
    <path d="m23.13,4.153l-3.236-3.265c-.425-.43-1.381-.888-2.131-.888h-8.763c-2.757,0-5,2.243-5,5v10c0,2.757,2.243,5,5,5h10c2.757,0,5-2.243,5-5V6.266c0-.797-.31-1.548-.87-2.112Zm-12.13-2.153h6v4h-6V2Zm11,13c0,1.654-1.346,3-3,3h-10c-1.654,0-3-1.346-3-3V5c0-1.654,1.346-3,3-3v4c0,1.103.897,2,2,2h6c1.103,0,2-.897,2-2v-3.172l2.711,2.734c.187.188.289.438.289.704v8.734Zm-4,8c0,.552-.447,1-1,1h-8C4.037,24,0,19.962,0,15V7c0-.552.447-1,1-1s1,.448,1,1v8c0,3.86,3.141,7,7,7h8c.553,0,1,.448,1,1Zm-4-13c-1.654,0-3,1.346-3,3s1.346,3,3,3,3-1.346,3-3-1.346-3-3-3Zm0,4c-.552,0-1-.449-1-1s.448-1,1-1,1,.449,1,1-.448,1-1,1Z"/>
  </symbol>
  <symbol id="saveAs" viewBox="0 0 24 24">
    <path d="m8,19h-3c-1.654,0-3-1.346-3-3V5c0-1.654,1.346-3,3-3v4c0,1.103.897,2,2,2h7c1.103,0,2-.897,2-2v-3.172l2.711,2.734c.187.188.289.438.289.704v1.734c0,.552.447,1,1,1s1-.448,1-1v-1.734c0-.797-.31-1.548-.87-2.112l-3.236-3.265C16.468.459,15.576.004,14.914.004c-.05-.003-9.914-.004-9.914-.004C2.243,0,0,2.243,0,5v11c0,2.757,2.243,5,5,5h3c.553,0,1-.448,1-1s-.447-1-1-1Zm-1-13V2h7v4h-7Zm3.5,11c-1.93,0-3.5-1.57-3.5-3.5s1.57-3.5,3.5-3.5,3.5,1.57,3.5,3.5c0,.552-.447,1-1,1s-1-.448-1-1c0-.827-.673-1.5-1.5-1.5s-1.5.673-1.5,1.5.673,1.5,1.5,1.5c.553,0,1,.448,1,1s-.447,1-1,1Zm12.621-5.121c-1.17-1.17-3.072-1.17-4.242,0l-6.707,6.707c-.756.755-1.172,1.76-1.172,2.828v1.586c0,.552.447,1,1,1h1.586c1.068,0,2.073-.417,2.828-1.172l6.707-6.707c.566-.567.879-1.32.879-2.122s-.313-1.555-.879-2.121Zm-1.414,2.828l-6.707,6.707c-.378.378-.88.586-1.414.586h-.586v-.586c0-.526.214-1.042.586-1.414l6.707-6.707c.391-.39,1.023-.39,1.414,0,.189.188.293.439.293.707s-.104.518-.293.707Z"/>
  </symbol>
  <symbol id="delete" viewBox="0 0 24 24">
    <path d="M21,4H17.9A5.009,5.009,0,0,0,13,0H11A5.009,5.009,0,0,0,6.1,4H3A1,1,0,0,0,3,6H4V19a5.006,5.006,0,0,0,5,5h6a5.006,5.006,0,0,0,5-5V6h1a1,1,0,0,0,0-2ZM11,2h2a3.006,3.006,0,0,1,2.829,2H8.171A3.006,3.006,0,0,1,11,2Zm7,17a3,3,0,0,1-3,3H9a3,3,0,0,1-3-3V6H18Z"/><path d="M10,18a1,1,0,0,0,1-1V11a1,1,0,0,0-2,0v6A1,1,0,0,0,10,18Z"/><path d="M14,18a1,1,0,0,0,1-1V11a1,1,0,0,0-2,0v6A1,1,0,0,0,14,18Z"/>
  </symbol>
  <symbol id="send" viewBox="0 0 24 24">
    <path d="m21.916,8.727L3.965.282C2.951-.211,1.756-.041.917.713.076,1.47-.216,2.646.172,3.708c.017.043,4.411,8.296,4.411,8.296,0,0-4.313,8.251-4.328,8.293-.387,1.063-.092,2.237.749,2.993.521.467,1.179.708,1.841.708.409,0,.819-.092,1.201-.279l17.872-8.438c1.285-.603,2.083-1.859,2.082-3.278,0-1.42-.801-2.675-2.084-3.275ZM2.032,2.967c-.122-.415.138-.69.223-.768.089-.079.414-.324.838-.116.005.002,17.974,8.455,17.974,8.455.239.112.438.27.591.462H6.315L2.032,2.967Zm19.034,10.504L3.178,21.917c-.425.209-.749-.035-.838-.116-.086-.076-.346-.353-.223-.769l4.202-8.032h15.345c-.153.195-.355.357-.597.471Z"/>
  </symbol>
</svg>